<svg width="24" height="14" fill="none" xmlns="http://www.w3.org/2000/svg"><path d="M23.962 1.033c.204.536-.422 1.787-1.88 3.752a49.49 49.49 0 00-.787 1.073c-.67.834-1.05 1.385-1.137 1.653-.146.357-.087.7.175 1.027.146.179.481.536 1.006 1.072h.044v.045c1.195 1.102 1.996 2.04 2.405 2.815l.087.178.087.336v.424l-.306.335-.743.156-3.192.09c-.204.03-.445 0-.722-.09a3.047 3.047 0 01-.634-.268l-.262-.178c-.262-.179-.554-.447-.875-.804-.32-.358-.604-.685-.852-.983a4.426 4.426 0 00-.766-.738c-.262-.193-.495-.26-.7-.2a.21.21 0 00-.108.044c-.044.03-.117.097-.219.201-.102.104-.19.231-.262.38a2.843 2.843 0 00-.197.648 5.042 5.042 0 00-.088 1.005c0 .12-.014.23-.043.335a1.49 1.49 0 01-.088.246l-.043.044c-.175.18-.409.268-.7.268h-1.4c-.612.06-1.231 0-1.858-.178a6.685 6.685 0 01-1.64-.693 16.025 16.025 0 01-1.268-.849 7.71 7.71 0 01-.874-.737l-.306-.313a1.939 1.939 0 01-.35-.357 53.67 53.67 0 01-.897-1.162 28.976 28.976 0 01-1.333-1.92c-.437-.686-.948-1.587-1.53-2.704a43.982 43.982 0 01-1.62-3.462A1.048 1.048 0 010 1.167.51.51 0 01.044.943L.087.9c.117-.181.35-.27.7-.27h3.455c.087 0 .174.023.262.067l.219.112.043.045a.71.71 0 01.306.402c.175.417.372.856.59 1.318.22.462.387.812.504 1.05l.174.357c.263.507.503.946.722 1.318.219.372.415.663.59.871.175.209.35.373.525.492.175.119.32.179.437.179a1.4 1.4 0 00.35-.045l.044-.067.153-.29.175-.581.109-1.028V3.222a8.107 8.107 0 00-.131-.916c-.058-.283-.117-.484-.175-.603l-.044-.134c-.204-.298-.568-.492-1.093-.581-.087 0-.058-.104.087-.313.146-.149.307-.268.481-.357C9.008.079 10-.025 11.544.005c.67 0 1.239.06 1.705.179.146.03.277.082.394.156a.685.685 0 01.262.313c.059.134.102.268.131.402.03.134.044.328.044.58v.693a7.58 7.58 0 00-.044.894v1.072c0 .09-.007.268-.021.536-.015.268-.022.477-.022.626 0 .148.014.32.043.513.03.194.08.358.153.492a.675.675 0 00.481.357c.073.015.183-.03.328-.134.146-.104.307-.253.481-.447.175-.193.394-.484.656-.87.263-.388.54-.835.831-1.341a24.22 24.22 0 001.356-2.904c.029-.06.065-.127.109-.201a.39.39 0 01.153-.157h.044L18.67.72l.175-.045h.263L22.694.63c.321-.03.59-.014.81.045.218.06.342.134.371.224l.087.134z" fill="#fff"/></svg>