<svg width="30" height="22" fill="none" xmlns="http://www.w3.org/2000/svg"><path d="M29.372 4.136a3.481 3.481 0 00-.957-1.587 3.811 3.811 0 00-1.672-.928c-2.347-.618-11.75-.618-11.75-.618a95.759 95.759 0 00-11.735.587 3.95 3.95 0 00-1.672.95 3.62 3.62 0 00-.972 1.595A36.354 36.354 0 00.004 11c-.015 2.3.188 4.598.61 6.865.17.599.504 1.145.968 1.586.464.441 1.041.76 1.676.929 2.378.617 11.735.617 11.735.617a95.983 95.983 0 0011.75-.587 3.81 3.81 0 001.672-.928c.462-.44.79-.99.956-1.587.43-2.263.64-4.563.626-6.867a33.216 33.216 0 00-.625-6.894zM12.003 15.279V6.723l7.824 4.279-7.824 4.277z" fill="#8D86C9"/></svg>